<svg width="298" height="28" viewBox="0 0 298 28" fill="none" xmlns="http://www.w3.org/2000/svg">
<path d="M11.1303 17.368C11.0103 17.2 10.8783 17.02 10.7343 16.828C10.6143 16.636 10.4703 16.42 10.3023 16.18C9.96627 15.724 9.66627 15.292 9.40227 14.884C9.16227 14.452 8.98227 14.176 8.86227 14.056L7.85427 12.904C7.78227 12.808 7.69827 12.676 7.60227 12.508C7.50627 12.34 7.43427 12.22 7.38627 12.148C7.26627 11.98 7.14627 11.812 7.02627 11.644C6.93027 11.452 6.82227 11.284 6.70227 11.14C6.55827 10.948 6.37827 10.708 6.16227 10.42C5.97027 10.132 5.86227 9.98801 5.83827 9.98801L5.87427 11.608L5.62227 14.524C5.62227 14.644 5.61027 14.908 5.58627 15.316C5.58627 15.7 5.57427 16.12 5.55027 16.576C5.52627 17.032 5.50227 17.464 5.47827 17.872C5.47827 18.256 5.47827 18.508 5.47827 18.628C5.45427 19.132 5.41827 19.576 5.37027 19.96C5.32227 20.344 5.31027 20.788 5.33427 21.292C5.33427 21.532 5.31027 21.76 5.26227 21.976C5.23827 22.168 5.23827 22.384 5.26227 22.624C5.26227 22.744 5.26227 22.864 5.26227 22.984C5.26227 23.08 5.25027 23.188 5.22627 23.308C5.25027 23.644 5.25027 23.992 5.22627 24.352C5.20227 24.688 5.19027 25.024 5.19027 25.36C4.90227 25.48 4.63827 25.552 4.39827 25.576C4.18227 25.6 3.90627 25.612 3.57027 25.612C3.47427 25.636 3.34227 25.648 3.17427 25.648C3.03027 25.672 2.88627 25.684 2.74227 25.684C2.59827 25.708 2.47827 25.72 2.38227 25.72C2.28627 25.744 2.25027 25.756 2.27427 25.756C2.15427 25.756 2.01027 25.768 1.84227 25.792C1.69827 25.816 1.53027 25.828 1.33827 25.828C1.24227 25.828 1.14627 25.816 1.05027 25.792C0.954267 25.792 0.858267 25.732 0.762267 25.612L0.906267 24.496V24.28C0.882267 23.92 0.858267 23.572 0.834267 23.236C0.810267 22.876 0.822267 22.564 0.870267 22.3C0.894267 22.156 0.906267 21.964 0.906267 21.724C0.930267 21.484 0.942267 21.232 0.942267 20.968C0.942267 20.704 0.942267 20.452 0.942267 20.212C0.942267 19.948 0.930267 19.72 0.906267 19.528C0.858267 19.144 0.822267 18.82 0.798267 18.556C0.798267 18.268 0.798267 17.812 0.798267 17.188C0.822267 16.684 0.834267 16.288 0.834267 16C0.834267 15.712 0.822267 15.316 0.798267 14.812V14.488C0.798267 14.152 0.774267 13.852 0.726267 13.588C0.702267 13.324 0.702267 13.096 0.726267 12.904C0.822267 12.4 0.846267 11.908 0.798267 11.428C0.774267 10.924 0.786267 10.396 0.834267 9.84401C0.858267 9.43601 0.858267 9.04001 0.834267 8.65601C0.834267 8.27201 0.834267 7.87601 0.834267 7.46801C0.834267 7.06001 0.846267 6.65201 0.870267 6.24401C0.918267 5.83601 0.942267 5.42801 0.942267 5.02001C0.942267 4.82801 0.954267 4.72001 0.978267 4.69601C1.02627 4.64801 1.14627 4.62401 1.33827 4.62401H5.04627C5.16627 4.74401 5.31027 4.94801 5.47827 5.23601C5.64627 5.50001 5.79027 5.71601 5.91027 5.88401C6.10227 6.12401 6.28227 6.40001 6.45027 6.71201C6.64227 7.02401 6.81027 7.30001 6.95427 7.54001C7.14627 7.94801 7.35027 8.26001 7.56627 8.47601C7.78227 8.69201 7.96227 8.98001 8.10627 9.34001C8.22627 9.46001 8.32227 9.60401 8.39427 9.77201C8.49027 9.91601 8.58627 10.036 8.68227 10.132C8.80227 10.324 8.95827 10.564 9.15027 10.852C9.34227 11.14 9.53427 11.38 9.72627 11.572C10.0383 11.98 10.3023 12.352 10.5183 12.688C10.7583 13.024 11.0463 13.384 11.3823 13.768C11.5743 14.032 11.7423 14.272 11.8863 14.488C12.0303 14.704 12.1863 14.944 12.3543 15.208C12.5463 15.424 12.7503 15.676 12.9663 15.964C13.2063 16.228 13.4703 16.528 13.7583 16.864C13.8063 16.84 13.8903 16.756 14.0103 16.612C14.1543 16.444 14.2623 16.3 14.3343 16.18C14.5503 15.964 14.7663 15.688 14.9823 15.352C15.2223 15.016 15.4503 14.716 15.6663 14.452L16.0263 13.732C16.0743 13.636 16.1343 13.552 16.2063 13.48C16.2783 13.384 16.3383 13.3 16.3863 13.228L17.3583 11.752C17.4543 11.512 17.6463 11.212 17.9343 10.852C18.2463 10.492 18.5463 10.06 18.8343 9.55601L19.0143 9.34001C19.2543 8.93201 19.4703 8.54801 19.6623 8.18801C19.8543 7.80401 20.0463 7.40801 20.2383 7.00001C20.3823 6.68801 20.5263 6.44801 20.6703 6.28001C20.8383 6.08801 21.0063 5.83601 21.1743 5.52401C21.2703 5.33201 21.3183 5.21201 21.3183 5.16401C21.3423 5.09201 21.3903 4.98401 21.4623 4.84001H24.7383C25.1463 4.93601 25.4343 4.98401 25.6023 4.98401C25.7703 4.98401 25.8903 4.98401 25.9623 4.98401C26.0823 4.98401 26.1903 4.99601 26.2863 5.02001C26.4063 5.02001 26.5623 5.02001 26.7543 5.02001V6.49601C26.6583 6.90401 26.5983 7.26401 26.5743 7.57601C26.5743 7.88801 26.5743 8.20001 26.5743 8.51201V12.148C26.5743 12.58 26.5863 13 26.6103 13.408C26.6343 13.792 26.6463 14.212 26.6463 14.668C26.6703 14.788 26.6823 14.92 26.6823 15.064C26.6823 15.184 26.6823 15.316 26.6823 15.46C26.7063 15.724 26.7063 15.916 26.6823 16.036C26.6823 16.156 26.6943 16.348 26.7183 16.612V17.08C26.6943 17.224 26.6703 17.476 26.6463 17.836C26.6223 18.172 26.5983 18.532 26.5743 18.916C26.5503 19.276 26.5263 19.636 26.5023 19.996C26.5023 20.332 26.5023 20.572 26.5023 20.716C26.5023 20.908 26.5143 21.148 26.5383 21.436C26.5623 21.724 26.5743 21.964 26.5743 22.156C26.5743 22.636 26.5623 23.14 26.5383 23.668C26.5383 24.172 26.4783 24.676 26.3583 25.18V26.008C26.2623 26.128 26.1303 26.188 25.9623 26.188C25.8183 26.212 25.6863 26.224 25.5663 26.224C25.3503 26.176 25.1223 26.164 24.8823 26.188C24.6663 26.212 24.5103 26.224 24.4143 26.224H21.6423C21.5943 25.888 21.5583 25.552 21.5343 25.216C21.5103 24.88 21.4983 24.556 21.4983 24.244C21.4983 24.1 21.4983 23.896 21.4983 23.632C21.5223 23.368 21.5343 23.092 21.5343 22.804C21.5343 22.492 21.5343 22.204 21.5343 21.94C21.5343 21.676 21.5223 21.472 21.4983 21.328C21.4983 21.16 21.5103 20.908 21.5343 20.572C21.5583 20.212 21.5703 19.948 21.5703 19.78L21.5343 18.556C21.5343 18.316 21.5223 18.124 21.4983 17.98C21.4983 17.812 21.4983 17.668 21.4983 17.548L21.4263 16.864C21.4263 16.816 21.4263 16.756 21.4263 16.684C21.4503 16.588 21.4623 16.516 21.4623 16.468C21.3663 15.916 21.3543 15.376 21.4263 14.848C21.5223 14.32 21.5463 13.804 21.4983 13.3C21.5223 13.132 21.5343 12.976 21.5343 12.832C21.5343 12.688 21.5343 12.544 21.5343 12.4L21.4623 10.528V10.132C21.3663 10.084 21.3183 10.06 21.3183 10.06C21.2943 10.084 21.2823 10.108 21.2823 10.132C20.9703 10.42 20.6943 10.732 20.4543 11.068C20.2143 11.38 19.9743 11.74 19.7343 12.148L18.6183 13.912C18.4983 14.128 18.3543 14.38 18.1863 14.668C18.0183 14.932 17.8503 15.208 17.6823 15.496C17.5143 15.784 17.3463 16.06 17.1783 16.324C17.0343 16.564 16.8903 16.768 16.7463 16.936C16.6743 17.032 16.5663 17.176 16.4223 17.368C16.3023 17.56 16.1583 17.776 15.9903 18.016C15.8463 18.232 15.6903 18.46 15.5223 18.7C15.3783 18.94 15.2343 19.156 15.0903 19.348L14.9463 19.564C14.8263 19.612 14.6583 19.636 14.4423 19.636C14.2503 19.612 14.0943 19.6 13.9743 19.6C13.7583 19.6 13.5423 19.612 13.3263 19.636C13.1103 19.636 12.8943 19.636 12.6783 19.636C12.4863 19.444 12.2943 19.18 12.1023 18.844C11.9103 18.508 11.7423 18.244 11.5983 18.052L11.1303 17.368Z" fill="#F32659"/>
<path d="M42.5495 25.864L42.2975 25.9C42.1775 25.924 42.0935 25.924 42.0455 25.9C42.0215 25.9 41.9135 25.9 41.7215 25.9C41.6975 25.9 41.6255 25.912 41.5055 25.936C41.3855 25.96 41.2535 25.984 41.1095 26.008C40.9655 26.032 40.8095 26.032 40.6415 26.008C40.4735 26.008 40.3415 25.984 40.2455 25.936C40.1255 25.936 40.0415 25.924 39.9935 25.9C39.9455 25.876 39.8615 25.864 39.7415 25.864C39.6215 25.768 39.5495 25.624 39.5255 25.432C39.5255 25.24 39.5255 25.084 39.5255 24.964V24.064L39.2375 24.46L38.5895 25.072C38.3495 25.24 38.1455 25.372 37.9775 25.468C37.8335 25.588 37.6535 25.708 37.4375 25.828C37.0775 26.044 36.6815 26.188 36.2495 26.26C35.8415 26.332 35.4575 26.368 35.0975 26.368C34.7375 26.368 34.3535 26.296 33.9455 26.152C33.5615 26.008 33.2135 25.876 32.9015 25.756C32.8055 25.732 32.7096 25.684 32.6136 25.612C32.5416 25.564 32.4696 25.516 32.3976 25.468C32.2536 25.348 32.0855 25.228 31.8935 25.108C31.7255 24.988 31.5815 24.868 31.4615 24.748C31.3895 24.7 31.3176 24.652 31.2456 24.604C31.1976 24.532 31.1256 24.472 31.0296 24.424C30.9096 24.352 30.8015 24.232 30.7055 24.064C30.5855 23.8 30.4295 23.548 30.2375 23.308C30.0695 23.044 29.9255 22.744 29.8055 22.408C29.7335 22.144 29.6375 21.892 29.5175 21.652C29.3975 21.412 29.3375 21.184 29.3375 20.968C29.3375 20.848 29.3255 20.644 29.3015 20.356C29.2775 20.068 29.2655 19.864 29.2655 19.744C29.2655 19.528 29.2655 19.36 29.2655 19.24C29.2895 19.12 29.3015 18.94 29.3015 18.7C29.3015 18.58 29.3135 18.46 29.3375 18.34C29.3855 18.196 29.4335 18.016 29.4815 17.8C29.5295 17.536 29.5655 17.26 29.5895 16.972C29.6135 16.66 29.6495 16.408 29.6975 16.216C29.8655 15.904 29.9735 15.712 30.0215 15.64C30.0935 15.568 30.1535 15.436 30.2015 15.244C30.2495 15.1 30.3095 14.92 30.3815 14.704C30.4775 14.464 30.6095 14.284 30.7775 14.164C30.8495 14.116 30.9575 14.032 31.1015 13.912C31.2455 13.792 31.3895 13.66 31.5335 13.516C31.7015 13.372 31.8455 13.252 31.9655 13.156C32.0855 13.036 32.1696 12.976 32.2176 12.976L32.8655 12.688C33.0575 12.616 33.2735 12.568 33.5135 12.544C33.7535 12.496 33.9815 12.472 34.1975 12.472L35.3135 12.436C35.4335 12.436 35.5655 12.436 35.7095 12.436C35.8775 12.436 35.9855 12.448 36.0335 12.472C36.1535 12.472 36.2735 12.508 36.3935 12.58C36.5135 12.652 36.6335 12.688 36.7535 12.688C36.8735 12.688 37.0175 12.736 37.1855 12.832C37.3775 12.904 37.5335 13 37.6535 13.12C37.8935 13.216 38.0735 13.336 38.1935 13.48C38.3375 13.6 38.4695 13.72 38.5895 13.84C38.7095 13.96 38.8175 14.08 38.9135 14.2C39.0335 14.296 39.1535 14.404 39.2735 14.524C39.2735 14.596 39.3215 14.656 39.4175 14.704C39.4655 14.728 39.5015 14.752 39.5255 14.776C39.5735 14.728 39.5975 14.632 39.5975 14.488C39.6215 14.344 39.6695 14.212 39.7415 14.092C39.7655 13.756 39.7775 13.456 39.7775 13.192C39.8015 12.904 39.8255 12.712 39.8495 12.616C39.8255 12.52 39.8375 12.388 39.8855 12.22C39.9335 12.028 40.0175 11.956 40.1375 12.004C40.1855 11.98 40.2935 11.98 40.4615 12.004C40.6295 12.028 40.8215 12.064 41.0375 12.112C41.2535 12.136 41.4695 12.16 41.6855 12.184C41.9255 12.208 42.1295 12.22 42.2975 12.22C42.3215 12.22 42.3335 12.28 42.3335 12.4C42.3335 12.52 42.3215 12.616 42.2975 12.688L42.5135 16.144V20.032C42.5135 20.104 42.5015 20.176 42.4775 20.248C42.4775 20.32 42.4775 20.392 42.4775 20.464C42.5015 20.68 42.5135 20.908 42.5135 21.148C42.5135 21.364 42.5135 21.592 42.5135 21.832C42.5375 22 42.5375 22.18 42.5135 22.372C42.5135 22.54 42.5135 22.72 42.5135 22.912C42.5135 23.056 42.5135 23.26 42.5135 23.524C42.5375 23.764 42.5495 24.016 42.5495 24.28C42.5495 24.544 42.5495 24.796 42.5495 25.036C42.5495 25.3 42.5495 25.516 42.5495 25.684V25.864ZM37.9055 20.428V20.32C37.9055 20.176 37.9295 19.864 37.9775 19.384C38.0255 18.88 37.9175 18.268 37.6535 17.548C37.5815 17.356 37.4735 17.152 37.3295 16.936C37.1855 16.72 36.9575 16.552 36.6455 16.432C36.4775 16.384 36.3215 16.336 36.1775 16.288C36.0335 16.216 35.8775 16.192 35.7095 16.216C35.5415 16.264 35.3255 16.372 35.0615 16.54C34.8215 16.708 34.6175 16.912 34.4495 17.152C34.3295 17.272 34.2575 17.404 34.2335 17.548C34.2095 17.692 34.1855 17.86 34.1615 18.052C34.0895 18.364 34.0295 18.604 33.9815 18.772C33.9575 18.94 33.9455 19.156 33.9455 19.42C33.9455 19.9 34.0775 20.32 34.3415 20.68C34.6295 21.04 34.8095 21.28 34.8815 21.4C34.9535 21.472 35.0135 21.52 35.0615 21.544C35.1335 21.544 35.2295 21.604 35.3495 21.724C35.5895 21.844 35.8175 21.868 36.0335 21.796C36.2495 21.7 36.4895 21.592 36.7535 21.472H36.9695C37.1855 21.352 37.3655 21.232 37.5095 21.112C37.6535 20.992 37.7855 20.812 37.9055 20.572V20.428Z" fill="#F32659"/>
<path d="M52.8568 24.1C52.8568 24.364 52.8448 24.64 52.8208 24.928C52.8208 25.216 52.8328 25.492 52.8568 25.756C52.8568 25.9 52.8568 26.104 52.8568 26.368C52.8568 26.656 52.8448 26.872 52.8208 27.016C52.8448 27.112 52.8208 27.196 52.7488 27.268C52.6768 27.364 52.6168 27.436 52.5688 27.484H51.6328C51.5128 27.484 51.3688 27.472 51.2008 27.448C51.0568 27.448 50.9248 27.448 50.8048 27.448C50.7088 27.496 50.5768 27.52 50.4088 27.52C50.2408 27.52 50.0608 27.52 49.8688 27.52C49.7008 27.52 49.5328 27.508 49.3648 27.484C49.2208 27.484 49.1368 27.484 49.1128 27.484C48.9928 27.364 48.9208 27.28 48.8968 27.232C48.8968 27.208 48.8968 27.136 48.8968 27.016V23.56L48.8248 21.436L48.8968 19.024L48.8608 16.936L48.7168 15.208C48.4288 15.208 48.0808 15.22 47.6728 15.244C47.2648 15.268 46.9528 15.256 46.7368 15.208C46.3288 15.136 46.0048 15.124 45.7648 15.172C45.5488 15.196 45.2728 15.208 44.9368 15.208V12.904H45.1528C45.2728 12.904 45.3688 12.904 45.4408 12.904C45.5368 12.88 45.6088 12.88 45.6568 12.904C45.7768 13 45.9448 13.036 46.1608 13.012C46.4008 12.964 46.5088 12.916 46.4848 12.868C46.7488 12.844 46.9048 12.832 46.9528 12.832C47.0248 12.832 47.1688 12.832 47.3848 12.832C47.5768 12.832 47.8528 12.844 48.2128 12.868C48.5968 12.868 48.8488 12.856 48.9688 12.832C48.9688 12.832 48.9688 12.76 48.9688 12.616C48.9688 12.472 48.9688 12.304 48.9688 12.112C48.9688 11.92 48.9688 11.716 48.9688 11.5C48.9688 11.284 48.9688 11.116 48.9688 10.996C49.0168 10.54 49.0408 10.132 49.0408 9.77201C49.0648 9.38801 49.0888 8.95601 49.1128 8.47601C49.1368 8.14001 49.1488 7.81601 49.1488 7.50401C49.1488 7.19201 49.1488 6.86801 49.1488 6.53201C49.1488 6.19601 49.1608 5.78801 49.1848 5.30801C49.2328 4.80401 49.2448 4.36001 49.2208 3.97601C49.2208 3.85601 49.1968 3.78401 49.1488 3.76001C49.1248 3.71201 49.1128 3.62801 49.1128 3.50801C49.1128 3.38801 49.1248 3.30401 49.1488 3.25601C49.1728 3.18401 49.2448 3.14801 49.3648 3.14801C49.5808 3.14801 49.8088 3.16001 50.0488 3.18401C50.2888 3.20801 50.5168 3.22001 50.7328 3.22001C51.0928 3.22001 51.4168 3.22001 51.7048 3.22001C52.0168 3.22001 52.2688 3.23201 52.4608 3.25601C52.8208 3.30401 53.0968 3.35201 53.2888 3.40001C53.2888 3.40001 53.2888 3.46001 53.2888 3.58001C53.2888 3.67601 53.2888 3.80801 53.2888 3.97601C53.2888 4.12001 53.2768 4.27601 53.2528 4.44401C53.2528 4.61201 53.2528 4.76801 53.2528 4.91201C53.2288 5.51201 53.2168 6.04001 53.2168 6.49601C53.2168 6.92801 53.2288 7.44401 53.2528 8.04401C53.2528 8.30801 53.2408 8.58401 53.2168 8.87201C53.2168 9.16001 53.2288 9.43601 53.2528 9.70001C53.2528 9.77201 53.2408 9.92801 53.2168 10.168C53.2168 10.408 53.2048 10.672 53.1808 10.96C53.1568 11.224 53.1328 11.476 53.1088 11.716C53.0848 11.956 53.0728 12.112 53.0728 12.184C53.0728 12.304 53.0968 12.412 53.1448 12.508C53.1928 12.604 53.2408 12.652 53.2888 12.652C53.4088 12.652 53.5648 12.676 53.7568 12.724C53.9488 12.748 54.1048 12.76 54.2248 12.76C54.3448 12.76 54.4648 12.784 54.5848 12.832C54.7288 12.856 54.9208 12.868 55.1608 12.868C55.3768 12.868 55.5928 12.88 55.8088 12.904C56.0488 12.904 56.3008 12.904 56.5648 12.904C56.6128 12.904 56.6608 12.916 56.7088 12.94C56.7568 12.94 56.8048 12.94 56.8528 12.94H56.9968C57.1168 13.3 57.1768 13.708 57.1768 14.164C57.1768 14.62 57.1168 14.968 56.9968 15.208H56.7808C56.3008 15.256 55.8328 15.304 55.3768 15.352C54.9208 15.376 54.4528 15.388 53.9728 15.388C53.8528 15.388 53.7088 15.4 53.5408 15.424C53.3728 15.424 53.2288 15.424 53.1088 15.424C53.1088 15.472 53.0968 15.532 53.0728 15.604C53.0728 15.652 53.0728 15.7 53.0728 15.748V15.892V16.216C53.0728 16.432 53.0728 16.636 53.0728 16.828C53.0968 16.996 53.0968 17.176 53.0728 17.368L53.1448 19.276L53.0008 20.896C53.0008 21.016 52.9888 21.232 52.9648 21.544C52.9648 21.832 52.9528 22.156 52.9288 22.516C52.9288 22.852 52.9168 23.176 52.8928 23.488C52.8688 23.776 52.8568 23.98 52.8568 24.1Z" fill="#F32659"/>
<path d="M59.8726 24.496C59.8486 24.304 59.8126 24.016 59.7646 23.632C59.7406 23.248 59.7166 22.864 59.6926 22.48C59.6686 22.072 59.6446 21.712 59.6206 21.4C59.5966 21.064 59.5966 20.848 59.6206 20.752C59.6206 20.656 59.6206 20.5 59.6206 20.284C59.6206 20.044 59.6086 19.804 59.5846 19.564C59.5606 19.3 59.5366 19.06 59.5126 18.844C59.5126 18.604 59.5126 18.424 59.5126 18.304C59.5366 17.56 59.5366 16.792 59.5126 16C59.5126 15.208 59.5486 14.452 59.6206 13.732C59.6206 13.612 59.6206 13.42 59.6206 13.156C59.6446 12.868 59.6566 12.664 59.6566 12.544C59.6566 12.424 59.6446 12.268 59.6206 12.076C59.5966 11.86 59.6086 11.692 59.6566 11.572C59.6566 11.356 59.6566 11.092 59.6566 10.78C59.6566 10.468 59.6566 10.168 59.6566 9.88001C59.6566 9.56801 59.6566 9.30401 59.6566 9.08801C59.6566 8.84801 59.6566 8.69201 59.6566 8.62001C59.6326 8.50001 59.6206 8.21201 59.6206 7.75601C59.6446 7.30001 59.6806 6.88001 59.7286 6.49601C59.7766 6.30401 59.7766 6.10001 59.7286 5.88401C59.7046 5.64401 59.7166 5.42801 59.7646 5.23601C59.8366 4.87601 59.8726 4.51601 59.8726 4.15601C59.8726 3.79601 59.8726 3.42401 59.8726 3.04001C59.8726 2.53601 59.8726 2.04401 59.8726 1.56401C59.8966 1.08401 59.9086 0.592013 59.9086 0.0880127H62.4646C62.4406 0.376013 62.4646 0.736012 62.5366 1.16801C62.6326 1.57601 62.6806 1.92401 62.6806 2.21201L62.8966 6.96401C62.8726 7.30001 62.8606 7.64801 62.8606 8.00801C62.8846 8.34401 62.8966 8.69201 62.8966 9.05201C62.8726 9.43601 62.8606 9.83201 62.8606 10.24C62.8846 10.624 62.8966 11.02 62.8966 11.428C62.8966 11.788 62.9086 12.148 62.9326 12.508C62.9566 12.844 63.0286 13.192 63.1486 13.552C63.2686 13.432 63.4006 13.324 63.5446 13.228C63.6886 13.108 63.8326 13.036 63.9766 13.012C64.6726 12.532 65.4646 12.292 66.3526 12.292C66.4726 12.292 66.6406 12.268 66.8566 12.22C67.0726 12.172 67.3006 12.148 67.5406 12.148C67.6606 12.148 67.7806 12.16 67.9006 12.184C68.0446 12.208 68.2366 12.28 68.4766 12.4C68.8366 12.496 69.1846 12.64 69.5206 12.832C69.8566 13.024 70.1926 13.18 70.5286 13.3C70.7926 13.492 71.0086 13.672 71.1766 13.84C71.3446 13.984 71.4886 14.128 71.6086 14.272C71.7286 14.416 71.8486 14.56 71.9686 14.704C72.0886 14.848 72.2326 15.004 72.4006 15.172C72.7606 15.628 73.0006 16.048 73.1206 16.432C73.2646 16.816 73.3366 17.236 73.3366 17.692C73.4566 18.388 73.5166 19.048 73.5166 19.672C73.5406 20.296 73.5526 20.956 73.5526 21.652C73.5526 22.252 73.5406 22.84 73.5166 23.416C73.4926 23.992 73.4446 24.484 73.3726 24.892C73.3246 25.204 73.3126 25.36 73.3366 25.36C72.7366 25.36 72.1366 25.372 71.5366 25.396C70.9606 25.42 70.3246 25.492 69.6286 25.612C69.5806 25.468 69.5686 25.3 69.5926 25.108C69.6166 24.916 69.6286 24.76 69.6286 24.64C69.6046 24.472 69.6046 24.28 69.6286 24.064C69.6766 23.824 69.7006 23.56 69.7006 23.272C69.7006 22.84 69.6886 22.372 69.6646 21.868C69.6406 21.364 69.6286 20.908 69.6286 20.5C69.6286 20.02 69.6166 19.54 69.5926 19.06C69.5686 18.58 69.4966 18.052 69.3766 17.476C69.3766 17.26 69.3406 17.032 69.2686 16.792C69.2206 16.552 69.1966 16.312 69.1966 16.072C69.1246 15.952 69.0646 15.832 69.0166 15.712C68.9686 15.592 68.8966 15.508 68.8006 15.46C68.6326 15.364 68.4526 15.208 68.2606 14.992C68.0926 14.848 67.7926 14.74 67.3606 14.668C66.9526 14.572 66.6166 14.584 66.3526 14.704C66.1366 14.824 65.9206 14.944 65.7046 15.064C65.4886 15.16 65.3206 15.268 65.2006 15.388C64.9606 15.508 64.7446 15.724 64.5526 16.036C64.3846 16.348 64.3006 16.684 64.3006 17.044C63.8206 18.22 63.5806 19.528 63.5806 20.968C63.5326 21.4 63.5086 21.82 63.5086 22.228C63.5086 22.612 63.5086 22.996 63.5086 23.38C63.5086 23.596 63.4846 23.812 63.4366 24.028C63.4126 24.22 63.4006 24.424 63.4006 24.64V26.044C62.8006 26.044 62.2126 26.08 61.6366 26.152C61.2766 26.2 60.9286 26.284 60.5926 26.404C60.4726 26.452 60.3526 26.5 60.2326 26.548C60.1366 26.596 60.0286 26.608 59.9086 26.584C59.8126 26.464 59.7886 26.284 59.8366 26.044C59.9086 25.804 59.9326 25.588 59.9086 25.396C59.8846 25.204 59.8726 25.036 59.8726 24.892C59.8966 24.748 59.8966 24.616 59.8726 24.496Z" fill="#F32659"/>
<path d="M86.795 18.088C86.795 18.208 86.735 18.328 86.615 18.448C86.543 18.52 86.435 18.568 86.291 18.592C86.147 18.616 86.015 18.628 85.895 18.628C85.727 18.676 85.523 18.7 85.283 18.7C85.043 18.7 84.839 18.7 84.671 18.7C84.335 18.7 84.083 18.712 83.915 18.736C83.747 18.736 83.471 18.76 83.087 18.808L80.927 18.988V19.42C80.927 19.684 80.963 19.948 81.035 20.212C81.107 20.452 81.239 20.704 81.431 20.968C81.551 21.16 81.695 21.34 81.863 21.508C82.031 21.676 82.199 21.784 82.367 21.832C82.511 21.88 82.643 21.928 82.763 21.976C82.883 22.024 82.991 22.072 83.087 22.12C83.207 22.144 83.315 22.144 83.411 22.12C84.059 22.12 84.527 22.048 84.815 21.904C85.127 21.76 85.499 21.58 85.931 21.364C86.027 21.364 86.123 21.316 86.219 21.22C86.339 21.124 86.423 21.064 86.471 21.04C86.591 20.992 86.759 20.872 86.975 20.68C87.215 20.488 87.395 20.368 87.515 20.32C87.587 20.368 87.611 20.536 87.587 20.824C87.563 21.088 87.575 21.34 87.623 21.58V21.976V22.696C87.503 22.84 87.407 22.948 87.335 23.02C87.287 23.068 87.239 23.116 87.191 23.164C87.167 23.212 87.119 23.272 87.047 23.344C86.975 23.416 86.867 23.524 86.723 23.668C86.291 24.1 85.835 24.388 85.3549 24.532C85.0909 24.676 84.803 24.784 84.491 24.856C84.179 24.904 83.927 24.964 83.735 25.036C83.615 25.06 83.507 25.072 83.411 25.072C83.315 25.096 83.219 25.108 83.123 25.108H82.835C82.379 25.108 81.935 25.096 81.503 25.072C81.071 25.072 80.615 24.952 80.135 24.712C79.967 24.736 79.727 24.688 79.415 24.568C79.127 24.448 78.935 24.328 78.839 24.208C78.575 24.064 78.3349 23.884 78.1189 23.668C77.9269 23.452 77.711 23.26 77.471 23.092C77.135 22.852 76.895 22.6 76.751 22.336C76.607 22.072 76.475 21.796 76.3549 21.508C76.2349 21.292 76.127 21.052 76.031 20.788C75.935 20.524 75.839 20.26 75.743 19.996C75.743 19.732 75.731 19.48 75.707 19.24C75.707 19 75.707 18.76 75.707 18.52V17.188C75.707 16.756 75.791 16.24 75.959 15.64C76.151 15.04 76.379 14.524 76.643 14.092C76.715 13.996 76.799 13.9 76.895 13.804C76.967 13.708 77.0509 13.612 77.1469 13.516C77.2669 13.42 77.387 13.312 77.507 13.192C77.579 13.168 77.651 13.132 77.723 13.084C77.819 13.036 77.9509 12.964 78.1189 12.868C78.1909 12.82 78.275 12.736 78.371 12.616C78.491 12.496 78.647 12.412 78.839 12.364C79.103 12.268 79.355 12.172 79.595 12.076C79.835 11.956 80.015 11.896 80.135 11.896C80.303 11.896 80.603 11.908 81.035 11.932C81.491 11.956 81.923 11.98 82.331 12.004C82.547 12.028 82.727 12.064 82.871 12.112C83.015 12.16 83.123 12.184 83.195 12.184C83.387 12.208 83.543 12.232 83.663 12.256C83.807 12.28 83.951 12.316 84.095 12.364C84.527 12.508 84.839 12.664 85.031 12.832C85.247 12.976 85.427 13.132 85.571 13.3C85.667 13.42 85.751 13.564 85.823 13.732C85.919 13.876 86.015 14.008 86.111 14.128C86.231 14.272 86.339 14.476 86.435 14.74C86.555 14.98 86.639 15.22 86.687 15.46C86.735 15.652 86.771 15.904 86.795 16.216C86.819 16.528 86.831 16.804 86.831 17.044C86.831 17.284 86.819 17.464 86.795 17.584C86.795 17.704 86.795 17.872 86.795 18.088ZM83.699 16C83.699 15.952 83.699 15.868 83.699 15.748C83.699 15.604 83.675 15.508 83.627 15.46C83.435 15.148 83.159 14.968 82.799 14.92C82.463 14.848 82.163 14.836 81.899 14.884C81.731 14.932 81.623 14.992 81.575 15.064C81.527 15.136 81.455 15.244 81.359 15.388C81.311 15.436 81.275 15.484 81.251 15.532C81.227 15.58 81.191 15.628 81.143 15.676C81.095 15.724 81.059 15.796 81.035 15.892C81.035 15.964 81.023 16.036 80.999 16.108C80.951 16.228 80.927 16.312 80.927 16.36C80.927 16.408 80.951 16.528 80.999 16.72C81.095 16.768 81.275 16.816 81.539 16.864C81.827 16.888 82.115 16.9 82.403 16.9C82.715 16.9 83.003 16.888 83.267 16.864C83.555 16.816 83.747 16.768 83.843 16.72C83.867 16.696 83.843 16.636 83.771 16.54C83.723 16.42 83.699 16.24 83.699 16Z" fill="#F32659"/>
<path d="M109.461 24.568C109.509 24.016 109.521 23.524 109.497 23.092C109.473 22.636 109.461 22.24 109.461 21.904C109.389 21.616 109.341 21.328 109.317 21.04C109.293 20.728 109.257 20.44 109.209 20.176C109.089 19.84 109.005 19.504 108.957 19.168C108.933 18.808 108.861 18.46 108.741 18.124C108.741 17.764 108.669 17.428 108.525 17.116C108.405 16.78 108.177 16.492 107.841 16.252C107.577 16.132 107.337 16.024 107.121 15.928C106.905 15.832 106.677 15.784 106.437 15.784C106.317 15.856 106.113 15.976 105.825 16.144C105.561 16.312 105.369 16.528 105.249 16.792C105.129 17.08 105.021 17.344 104.925 17.584C104.853 17.8 104.769 17.98 104.673 18.124C104.529 18.364 104.457 18.652 104.457 18.988C104.457 19.324 104.445 19.624 104.421 19.888C104.421 19.936 104.409 20.056 104.385 20.248C104.361 20.416 104.337 20.608 104.313 20.824C104.289 21.04 104.265 21.244 104.241 21.436C104.217 21.604 104.205 21.712 104.205 21.76L103.917 23.848C103.917 24.016 103.905 24.184 103.881 24.352C103.881 24.496 103.881 24.652 103.881 24.82C103.881 24.94 103.869 25.06 103.845 25.18C103.821 25.3 103.809 25.42 103.809 25.54H103.593C103.305 25.588 102.993 25.612 102.657 25.612C102.345 25.612 101.973 25.588 101.541 25.54C101.421 25.516 101.313 25.492 101.217 25.468C101.145 25.444 101.109 25.312 101.109 25.072C101.109 24.784 101.097 24.52 101.073 24.28C101.073 24.04 101.073 23.788 101.073 23.524C101.097 23.164 101.109 22.804 101.109 22.444C101.109 22.06 101.073 21.652 101.001 21.22C101.001 20.908 100.965 20.572 100.893 20.212C100.821 19.852 100.761 19.504 100.713 19.168C100.665 18.856 100.641 18.544 100.641 18.232C100.641 17.896 100.581 17.596 100.461 17.332C100.389 17.092 100.305 16.876 100.209 16.684C100.137 16.468 100.041 16.24 99.9206 16C99.8966 15.952 99.8726 15.928 99.8486 15.928C99.8246 15.904 99.8006 15.88 99.7766 15.856L99.5246 15.748C99.2606 15.58 98.9366 15.46 98.5526 15.388H98.4086L97.6166 15.496C97.1366 15.568 96.7526 15.736 96.4646 16C95.7686 16.696 95.3126 17.62 95.0966 18.772C94.9526 18.988 94.8686 19.216 94.8446 19.456C94.8206 19.672 94.7846 19.888 94.7366 20.104C94.6886 20.368 94.6526 20.644 94.6286 20.932C94.6286 21.196 94.6166 21.46 94.5926 21.724C94.5926 21.916 94.5566 22.108 94.4846 22.3C94.4366 22.492 94.4366 22.672 94.4846 22.84C94.4846 22.888 94.4726 22.996 94.4486 23.164C94.4486 23.332 94.4366 23.512 94.4126 23.704C94.4126 23.896 94.4006 24.076 94.3766 24.244C94.3766 24.412 94.3766 24.52 94.3766 24.568C94.3286 24.664 94.3046 24.856 94.3046 25.144C94.3046 25.432 94.2926 25.6 94.2686 25.648C94.1486 25.648 94.0046 25.66 93.8366 25.684C93.6926 25.732 93.5366 25.78 93.3686 25.828C93.2246 25.876 93.0566 25.888 92.8646 25.864C92.6726 25.84 92.4926 25.804 92.3246 25.756C91.9646 25.684 91.7006 25.648 91.5326 25.648C91.3646 25.648 91.1486 25.612 90.8846 25.54C90.8846 25.396 90.8726 25.216 90.8486 25C90.8486 24.76 90.8246 24.52 90.7766 24.28C90.7526 24.016 90.7286 23.764 90.7046 23.524C90.7046 23.284 90.7046 23.104 90.7046 22.984C90.7046 22.912 90.6926 22.792 90.6686 22.624C90.6686 22.432 90.6566 22.24 90.6326 22.048C90.6326 21.832 90.6206 21.64 90.5966 21.472C90.5726 21.28 90.5606 21.148 90.5606 21.076C90.5366 20.836 90.5246 20.62 90.5246 20.428C90.5246 20.236 90.5246 20.02 90.5246 19.78C90.5486 19.54 90.5606 19.312 90.5606 19.096C90.5606 18.88 90.5606 18.664 90.5606 18.448V15.46C90.5606 15.388 90.5606 15.208 90.5606 14.92C90.5846 14.608 90.5966 14.284 90.5966 13.948C90.6206 13.612 90.6326 13.3 90.6326 13.012C90.6566 12.7 90.6686 12.508 90.6686 12.436C90.7886 12.436 90.9446 12.424 91.1366 12.4C91.3286 12.376 91.4846 12.364 91.6046 12.364C91.8446 12.364 92.0606 12.364 92.2526 12.364C92.4686 12.34 92.6846 12.328 92.9006 12.328C93.1406 12.328 93.2606 12.328 93.2606 12.328C93.2606 12.304 93.3086 12.304 93.4046 12.328C93.4766 12.544 93.5006 12.688 93.4766 12.76C93.4766 12.808 93.5006 12.916 93.5486 13.084C93.5726 13.204 93.5966 13.348 93.6206 13.516C93.6686 13.684 93.6926 13.828 93.6926 13.948V14.128C93.9086 13.912 94.1246 13.744 94.3406 13.624C94.5566 13.48 94.7246 13.348 94.8446 13.228C95.1806 12.964 95.5286 12.784 95.8886 12.688C96.2486 12.592 96.6566 12.508 97.1126 12.436L98.7326 12.256H98.9846C99.3446 12.328 99.6686 12.412 99.9566 12.508C100.245 12.58 100.545 12.712 100.857 12.904L101.757 13.696C101.901 13.792 101.997 13.876 102.045 13.948C102.165 14.044 102.273 14.164 102.369 14.308C102.489 14.428 102.597 14.608 102.693 14.848C102.813 14.728 102.921 14.62 103.017 14.524C103.113 14.404 103.221 14.284 103.341 14.164C103.389 14.116 103.449 14.068 103.521 14.02C103.617 13.972 103.725 13.924 103.845 13.876C104.037 13.756 104.181 13.66 104.277 13.588C104.373 13.492 104.517 13.396 104.709 13.3C104.829 13.252 104.961 13.204 105.105 13.156C105.273 13.108 105.417 13.048 105.537 12.976C106.113 12.736 106.629 12.688 107.085 12.832C107.565 12.976 108.033 13.108 108.489 13.228C108.849 13.348 109.149 13.528 109.389 13.768C109.653 14.008 109.905 14.296 110.145 14.632L110.829 16C110.949 16.36 111.057 16.72 111.153 17.08C111.273 17.416 111.333 17.764 111.333 18.124C111.429 18.58 111.525 19.048 111.621 19.528C111.717 19.984 111.765 20.5 111.765 21.076C111.885 21.436 111.921 21.832 111.873 22.264C111.825 22.696 111.861 23.08 111.981 23.416V25.288C111.741 25.288 111.549 25.324 111.405 25.396C111.285 25.492 111.093 25.54 110.829 25.54C110.709 25.54 110.553 25.552 110.361 25.576C110.169 25.624 110.013 25.672 109.893 25.72C109.773 25.72 109.665 25.708 109.569 25.684C109.497 25.684 109.461 25.636 109.461 25.54V24.568Z" fill="#F32659"/>
<path d="M128.155 25.864L127.903 25.9C127.783 25.924 127.699 25.924 127.651 25.9C127.627 25.9 127.519 25.9 127.327 25.9C127.303 25.9 127.231 25.912 127.111 25.936C126.991 25.96 126.859 25.984 126.715 26.008C126.571 26.032 126.415 26.032 126.247 26.008C126.079 26.008 125.947 25.984 125.851 25.936C125.731 25.936 125.647 25.924 125.599 25.9C125.551 25.876 125.467 25.864 125.347 25.864C125.227 25.768 125.155 25.624 125.131 25.432C125.131 25.24 125.131 25.084 125.131 24.964V24.064L124.843 24.46L124.195 25.072C123.955 25.24 123.751 25.372 123.583 25.468C123.439 25.588 123.259 25.708 123.043 25.828C122.683 26.044 122.287 26.188 121.855 26.26C121.447 26.332 121.063 26.368 120.703 26.368C120.343 26.368 119.959 26.296 119.551 26.152C119.167 26.008 118.819 25.876 118.507 25.756C118.411 25.732 118.315 25.684 118.219 25.612C118.147 25.564 118.075 25.516 118.003 25.468C117.859 25.348 117.691 25.228 117.499 25.108C117.331 24.988 117.187 24.868 117.067 24.748C116.995 24.7 116.923 24.652 116.851 24.604C116.803 24.532 116.731 24.472 116.635 24.424C116.515 24.352 116.407 24.232 116.311 24.064C116.191 23.8 116.035 23.548 115.843 23.308C115.675 23.044 115.531 22.744 115.411 22.408C115.339 22.144 115.243 21.892 115.123 21.652C115.003 21.412 114.943 21.184 114.943 20.968C114.943 20.848 114.931 20.644 114.907 20.356C114.883 20.068 114.871 19.864 114.871 19.744C114.871 19.528 114.871 19.36 114.871 19.24C114.895 19.12 114.907 18.94 114.907 18.7C114.907 18.58 114.919 18.46 114.943 18.34C114.991 18.196 115.039 18.016 115.087 17.8C115.135 17.536 115.171 17.26 115.195 16.972C115.219 16.66 115.255 16.408 115.303 16.216C115.471 15.904 115.579 15.712 115.627 15.64C115.699 15.568 115.759 15.436 115.807 15.244C115.855 15.1 115.915 14.92 115.987 14.704C116.083 14.464 116.215 14.284 116.383 14.164C116.455 14.116 116.563 14.032 116.707 13.912C116.851 13.792 116.995 13.66 117.139 13.516C117.307 13.372 117.451 13.252 117.571 13.156C117.691 13.036 117.775 12.976 117.823 12.976L118.471 12.688C118.663 12.616 118.879 12.568 119.119 12.544C119.359 12.496 119.587 12.472 119.803 12.472L120.919 12.436C121.039 12.436 121.171 12.436 121.315 12.436C121.483 12.436 121.591 12.448 121.639 12.472C121.759 12.472 121.879 12.508 121.999 12.58C122.119 12.652 122.239 12.688 122.359 12.688C122.479 12.688 122.623 12.736 122.791 12.832C122.983 12.904 123.139 13 123.259 13.12C123.499 13.216 123.679 13.336 123.799 13.48C123.943 13.6 124.075 13.72 124.195 13.84C124.315 13.96 124.423 14.08 124.519 14.2C124.639 14.296 124.759 14.404 124.879 14.524C124.879 14.596 124.927 14.656 125.023 14.704C125.071 14.728 125.107 14.752 125.131 14.776C125.179 14.728 125.203 14.632 125.203 14.488C125.227 14.344 125.275 14.212 125.347 14.092C125.371 13.756 125.383 13.456 125.383 13.192C125.407 12.904 125.431 12.712 125.455 12.616C125.431 12.52 125.443 12.388 125.491 12.22C125.539 12.028 125.623 11.956 125.743 12.004C125.791 11.98 125.899 11.98 126.067 12.004C126.235 12.028 126.427 12.064 126.643 12.112C126.859 12.136 127.075 12.16 127.291 12.184C127.531 12.208 127.735 12.22 127.903 12.22C127.927 12.22 127.939 12.28 127.939 12.4C127.939 12.52 127.927 12.616 127.903 12.688L128.119 16.144V20.032C128.119 20.104 128.107 20.176 128.083 20.248C128.083 20.32 128.083 20.392 128.083 20.464C128.107 20.68 128.119 20.908 128.119 21.148C128.119 21.364 128.119 21.592 128.119 21.832C128.143 22 128.143 22.18 128.119 22.372C128.119 22.54 128.119 22.72 128.119 22.912C128.119 23.056 128.119 23.26 128.119 23.524C128.143 23.764 128.155 24.016 128.155 24.28C128.155 24.544 128.155 24.796 128.155 25.036C128.155 25.3 128.155 25.516 128.155 25.684V25.864ZM123.511 20.428V20.32C123.511 20.176 123.535 19.864 123.583 19.384C123.631 18.88 123.523 18.268 123.259 17.548C123.187 17.356 123.079 17.152 122.935 16.936C122.791 16.72 122.563 16.552 122.251 16.432C122.083 16.384 121.927 16.336 121.783 16.288C121.639 16.216 121.483 16.192 121.315 16.216C121.147 16.264 120.931 16.372 120.667 16.54C120.427 16.708 120.223 16.912 120.055 17.152C119.935 17.272 119.863 17.404 119.839 17.548C119.815 17.692 119.791 17.86 119.767 18.052C119.695 18.364 119.635 18.604 119.587 18.772C119.563 18.94 119.551 19.156 119.551 19.42C119.551 19.9 119.683 20.32 119.947 20.68C120.235 21.04 120.415 21.28 120.487 21.4C120.559 21.472 120.619 21.52 120.667 21.544C120.739 21.544 120.835 21.604 120.955 21.724C121.195 21.844 121.423 21.868 121.639 21.796C121.855 21.7 122.095 21.592 122.359 21.472H122.575C122.791 21.352 122.971 21.232 123.115 21.112C123.259 20.992 123.391 20.812 123.511 20.572V20.428Z" fill="#F32659"/>
<path d="M138.462 24.1C138.462 24.364 138.45 24.64 138.426 24.928C138.426 25.216 138.438 25.492 138.462 25.756C138.462 25.9 138.462 26.104 138.462 26.368C138.462 26.656 138.45 26.872 138.426 27.016C138.45 27.112 138.426 27.196 138.354 27.268C138.282 27.364 138.222 27.436 138.174 27.484H137.238C137.118 27.484 136.974 27.472 136.806 27.448C136.662 27.448 136.53 27.448 136.41 27.448C136.314 27.496 136.182 27.52 136.014 27.52C135.846 27.52 135.666 27.52 135.474 27.52C135.306 27.52 135.138 27.508 134.97 27.484C134.826 27.484 134.742 27.484 134.718 27.484C134.598 27.364 134.526 27.28 134.502 27.232C134.502 27.208 134.502 27.136 134.502 27.016V23.56L134.43 21.436L134.502 19.024L134.466 16.936L134.322 15.208C134.034 15.208 133.686 15.22 133.278 15.244C132.87 15.268 132.558 15.256 132.342 15.208C131.934 15.136 131.61 15.124 131.37 15.172C131.154 15.196 130.878 15.208 130.542 15.208V12.904H130.758C130.878 12.904 130.974 12.904 131.046 12.904C131.142 12.88 131.214 12.88 131.262 12.904C131.382 13 131.55 13.036 131.766 13.012C132.006 12.964 132.114 12.916 132.09 12.868C132.354 12.844 132.51 12.832 132.558 12.832C132.63 12.832 132.774 12.832 132.99 12.832C133.182 12.832 133.458 12.844 133.818 12.868C134.202 12.868 134.454 12.856 134.574 12.832C134.574 12.832 134.574 12.76 134.574 12.616C134.574 12.472 134.574 12.304 134.574 12.112C134.574 11.92 134.574 11.716 134.574 11.5C134.574 11.284 134.574 11.116 134.574 10.996C134.622 10.54 134.646 10.132 134.646 9.77201C134.67 9.38801 134.694 8.95601 134.718 8.47601C134.742 8.14001 134.754 7.81601 134.754 7.50401C134.754 7.19201 134.754 6.86801 134.754 6.53201C134.754 6.19601 134.766 5.78801 134.79 5.30801C134.838 4.80401 134.85 4.36001 134.826 3.97601C134.826 3.85601 134.802 3.78401 134.754 3.76001C134.73 3.71201 134.718 3.62801 134.718 3.50801C134.718 3.38801 134.73 3.30401 134.754 3.25601C134.778 3.18401 134.85 3.14801 134.97 3.14801C135.186 3.14801 135.414 3.16001 135.654 3.18401C135.894 3.20801 136.122 3.22001 136.338 3.22001C136.698 3.22001 137.022 3.22001 137.31 3.22001C137.622 3.22001 137.874 3.23201 138.066 3.25601C138.426 3.30401 138.702 3.35201 138.894 3.40001C138.894 3.40001 138.894 3.46001 138.894 3.58001C138.894 3.67601 138.894 3.80801 138.894 3.97601C138.894 4.12001 138.882 4.27601 138.858 4.44401C138.858 4.61201 138.858 4.76801 138.858 4.91201C138.834 5.51201 138.822 6.04001 138.822 6.49601C138.822 6.92801 138.834 7.44401 138.858 8.04401C138.858 8.30801 138.846 8.58401 138.822 8.87201C138.822 9.16001 138.834 9.43601 138.858 9.70001C138.858 9.77201 138.846 9.92801 138.822 10.168C138.822 10.408 138.81 10.672 138.786 10.96C138.762 11.224 138.738 11.476 138.714 11.716C138.69 11.956 138.678 12.112 138.678 12.184C138.678 12.304 138.702 12.412 138.75 12.508C138.798 12.604 138.846 12.652 138.894 12.652C139.014 12.652 139.17 12.676 139.362 12.724C139.554 12.748 139.71 12.76 139.83 12.76C139.95 12.76 140.07 12.784 140.19 12.832C140.334 12.856 140.526 12.868 140.766 12.868C140.982 12.868 141.198 12.88 141.414 12.904C141.654 12.904 141.906 12.904 142.17 12.904C142.218 12.904 142.266 12.916 142.314 12.94C142.362 12.94 142.41 12.94 142.458 12.94H142.602C142.722 13.3 142.782 13.708 142.782 14.164C142.782 14.62 142.722 14.968 142.602 15.208H142.386C141.906 15.256 141.438 15.304 140.982 15.352C140.526 15.376 140.058 15.388 139.578 15.388C139.458 15.388 139.314 15.4 139.146 15.424C138.978 15.424 138.834 15.424 138.714 15.424C138.714 15.472 138.702 15.532 138.678 15.604C138.678 15.652 138.678 15.7 138.678 15.748V15.892V16.216C138.678 16.432 138.678 16.636 138.678 16.828C138.702 16.996 138.702 17.176 138.678 17.368L138.75 19.276L138.606 20.896C138.606 21.016 138.594 21.232 138.57 21.544C138.57 21.832 138.558 22.156 138.534 22.516C138.534 22.852 138.522 23.176 138.498 23.488C138.474 23.776 138.462 23.98 138.462 24.1Z" fill="#F32659"/>
<path d="M148.43 21.868C148.478 22.348 148.49 22.78 148.466 23.164C148.442 23.548 148.406 23.908 148.358 24.244C148.358 24.388 148.322 24.496 148.25 24.568C148.01 24.616 147.734 24.664 147.422 24.712C147.11 24.736 146.822 24.736 146.558 24.712C146.342 24.688 146.126 24.7 145.91 24.748C145.694 24.772 145.538 24.784 145.442 24.784C145.442 24.64 145.43 24.508 145.406 24.388C145.382 24.268 145.382 24.1 145.406 23.884C145.43 23.692 145.43 23.488 145.406 23.272C145.406 23.056 145.406 22.852 145.406 22.66V20.896C145.382 20.344 145.37 19.78 145.37 19.204C145.37 18.628 145.358 18.244 145.334 18.052C145.31 17.836 145.31 17.62 145.334 17.404C145.382 17.188 145.406 16.972 145.406 16.756C145.382 16.42 145.37 16.084 145.37 15.748C145.394 15.388 145.406 15.04 145.406 14.704C145.406 14.416 145.394 14.044 145.37 13.588C145.346 13.108 145.358 12.724 145.406 12.436C145.598 12.388 145.838 12.364 146.126 12.364C146.414 12.364 146.726 12.352 147.062 12.328C147.326 12.304 147.59 12.292 147.854 12.292C148.118 12.292 148.31 12.292 148.43 12.292C148.478 12.292 148.49 12.364 148.466 12.508C148.466 12.628 148.466 12.712 148.466 12.76C148.442 13.36 148.442 13.888 148.466 14.344C148.49 14.776 148.478 15.232 148.43 15.712C148.454 16.192 148.454 16.612 148.43 16.972C148.43 17.308 148.406 17.716 148.358 18.196C148.358 18.268 148.358 18.46 148.358 18.772C148.358 19.084 148.37 19.444 148.394 19.852C148.418 20.236 148.43 20.62 148.43 21.004C148.43 21.364 148.43 21.652 148.43 21.868ZM145.37 9.98801C145.346 9.86801 145.334 9.68801 145.334 9.44801C145.358 9.20801 145.37 8.95601 145.37 8.69201C145.37 8.57201 145.358 8.46401 145.334 8.36801C145.334 8.27201 145.334 8.17601 145.334 8.08001C145.334 8.03201 145.334 7.99601 145.334 7.97201C145.358 7.94801 145.37 7.91201 145.37 7.86401H147.962C148.082 7.86401 148.154 7.87601 148.178 7.90001C148.202 7.90001 148.214 7.96001 148.214 8.08001V10.42C148.07 10.444 147.842 10.456 147.53 10.456C147.242 10.456 146.942 10.456 146.63 10.456C146.318 10.456 146.03 10.456 145.766 10.456C145.526 10.432 145.406 10.396 145.406 10.348C145.382 10.276 145.37 10.156 145.37 9.98801Z" fill="#F32659"/>
<path d="M158.382 15.28C158.094 15.328 157.83 15.4 157.59 15.496C157.35 15.592 157.122 15.772 156.906 16.036C156.57 16.372 156.33 16.756 156.186 17.188C156.066 17.62 156.006 18.112 156.006 18.664V19.564C156.126 19.804 156.21 20.068 156.258 20.356C156.306 20.644 156.45 20.896 156.69 21.112C156.81 21.328 156.966 21.544 157.158 21.76C157.35 21.976 157.542 22.216 157.734 22.48C157.854 22.552 158.01 22.612 158.202 22.66C158.394 22.684 158.55 22.756 158.67 22.876C158.982 22.996 159.342 23.068 159.75 23.092C160.158 23.092 160.53 23.092 160.866 23.092C161.034 23.068 161.202 23.032 161.37 22.984C161.538 22.912 161.802 22.876 162.162 22.876C162.282 22.828 162.378 22.876 162.45 23.02C162.522 23.14 162.594 23.296 162.666 23.488C162.738 23.608 162.81 23.764 162.882 23.956C162.954 24.124 163.014 24.28 163.062 24.424C163.11 24.52 163.158 24.616 163.206 24.712C163.278 24.784 163.314 24.892 163.314 25.036C163.266 25.06 163.206 25.096 163.134 25.144C163.062 25.216 162.978 25.276 162.882 25.324C162.834 25.444 162.726 25.516 162.558 25.54C162.39 25.588 162.258 25.66 162.162 25.756C161.298 26.188 160.422 26.404 159.534 26.404C159.318 26.404 159.114 26.404 158.922 26.404C158.73 26.428 158.49 26.428 158.202 26.404C157.986 26.404 157.698 26.344 157.338 26.224C157.194 26.224 156.978 26.224 156.69 26.224C156.402 26.224 156.186 26.212 156.042 26.188C155.922 26.164 155.802 26.116 155.682 26.044C155.586 25.972 155.478 25.912 155.358 25.864C155.238 25.816 155.118 25.768 154.998 25.72C154.878 25.672 154.758 25.624 154.638 25.576C154.374 25.456 154.134 25.264 153.918 25C153.726 24.76 153.51 24.532 153.27 24.316C153.054 24.124 152.814 23.872 152.55 23.56C152.31 23.224 152.166 22.948 152.118 22.732C152.022 22.468 151.89 22.18 151.722 21.868C151.578 21.556 151.494 21.232 151.47 20.896C151.422 20.752 151.398 20.632 151.398 20.536C151.398 20.44 151.398 20.344 151.398 20.248V18.664C151.398 18.112 151.41 17.62 151.434 17.188C151.482 16.732 151.614 16.288 151.83 15.856C151.95 15.616 152.058 15.352 152.154 15.064C152.274 14.776 152.454 14.512 152.694 14.272C152.694 14.152 152.742 14.044 152.838 13.948C152.934 13.828 153.042 13.732 153.162 13.66L153.774 12.976C154.038 12.856 154.242 12.748 154.386 12.652C154.53 12.532 154.698 12.412 154.89 12.292C155.226 12.172 155.55 12.076 155.862 12.004C156.174 11.908 156.45 11.86 156.69 11.86C157.074 11.788 157.386 11.728 157.626 11.68C157.89 11.608 158.226 11.644 158.634 11.788C158.85 11.812 159.066 11.848 159.282 11.896C159.522 11.92 159.738 11.98 159.93 12.076C160.122 12.124 160.266 12.16 160.362 12.184C160.458 12.208 160.578 12.244 160.722 12.292C160.962 12.34 161.19 12.424 161.406 12.544C161.646 12.664 161.862 12.784 162.054 12.904L162.306 12.976C162.33 12.976 162.33 13.072 162.306 13.264C162.306 13.432 162.282 13.612 162.234 13.804C162.186 13.924 162.162 14.056 162.162 14.2C162.162 14.32 162.162 14.5 162.162 14.74V15.388C162.162 15.436 162.126 15.496 162.054 15.568C162.03 15.592 162.006 15.604 161.982 15.604C161.862 15.604 161.754 15.592 161.658 15.568C161.562 15.52 161.454 15.496 161.334 15.496C161.166 15.448 160.962 15.388 160.722 15.316C160.482 15.22 160.278 15.172 160.11 15.172C159.798 15.172 159.498 15.172 159.21 15.172C158.946 15.172 158.67 15.208 158.382 15.28Z" fill="#F32659"/>
<path d="M169.493 25.432C169.109 25.288 168.701 25.072 168.269 24.784C167.837 24.472 167.525 24.244 167.333 24.1C167.213 23.98 167.105 23.884 167.009 23.812C166.937 23.74 166.889 23.644 166.865 23.524C166.697 23.164 166.505 22.852 166.289 22.588C166.097 22.324 165.965 22.024 165.893 21.688C165.821 21.352 165.749 21.016 165.677 20.68C165.629 20.32 165.581 19.984 165.533 19.672C165.533 19.336 165.521 19.024 165.497 18.736C165.473 18.448 165.461 18.136 165.461 17.8C165.461 17.44 165.473 17.116 165.497 16.828C165.545 16.54 165.569 16.216 165.569 15.856C165.569 15.616 165.557 15.376 165.533 15.136C165.533 14.872 165.533 14.62 165.533 14.38V13.876C165.533 13.66 165.545 13.444 165.569 13.228C165.617 12.988 165.641 12.748 165.641 12.508C165.929 12.484 166.277 12.484 166.685 12.508C167.117 12.508 167.441 12.508 167.657 12.508C167.729 12.532 167.885 12.532 168.125 12.508C168.389 12.484 168.569 12.472 168.665 12.472C168.785 12.472 169.037 12.472 169.421 12.472C169.829 12.472 170.093 12.484 170.213 12.508C170.189 12.628 170.165 12.736 170.141 12.832C170.117 12.928 170.105 13.024 170.105 13.12C170.105 13.216 170.105 13.288 170.105 13.336C170.105 13.672 170.093 13.972 170.069 14.236C170.045 14.5 170.033 14.776 170.033 15.064C170.033 15.208 170.033 15.496 170.033 15.928C170.057 16.336 170.081 16.78 170.105 17.26C170.129 17.74 170.153 18.196 170.177 18.628C170.225 19.036 170.261 19.312 170.285 19.456C170.285 19.696 170.285 19.9 170.285 20.068C170.309 20.212 170.333 20.404 170.357 20.644C170.381 20.908 170.441 21.136 170.537 21.328C170.657 21.496 170.741 21.604 170.789 21.652L171.005 22.228L171.509 22.876C171.677 23.092 171.905 23.224 172.193 23.272C172.481 23.296 172.757 23.296 173.021 23.272L173.849 23.2C174.041 23.176 174.257 23.056 174.497 22.84C174.737 22.6 174.953 22.42 175.145 22.3C175.265 22.18 175.361 22.012 175.433 21.796C175.529 21.556 175.613 21.316 175.685 21.076C175.685 21.052 175.709 20.944 175.757 20.752C175.805 20.56 175.853 20.356 175.901 20.14C175.973 19.9 176.021 19.684 176.045 19.492C176.093 19.276 176.117 19.156 176.117 19.132C176.141 18.94 176.165 18.724 176.189 18.484C176.213 18.244 176.213 18.028 176.189 17.836C176.141 17.62 176.141 17.38 176.189 17.116C176.237 16.852 176.261 16.6 176.261 16.36C176.261 16.168 176.273 15.952 176.297 15.712C176.321 15.472 176.345 15.292 176.369 15.172C176.369 15.196 176.369 15.148 176.369 15.028C176.393 14.908 176.405 14.776 176.405 14.632C176.405 14.488 176.405 14.356 176.405 14.236C176.405 14.092 176.405 14.008 176.405 13.984C176.381 13.84 176.345 13.708 176.297 13.588C176.273 13.444 176.261 13.3 176.261 13.156C176.261 13.084 176.273 13.012 176.297 12.94C176.321 12.868 176.333 12.796 176.333 12.724H177.089C177.185 12.724 177.269 12.736 177.341 12.76C177.437 12.784 177.509 12.796 177.557 12.796C177.797 12.796 178.001 12.808 178.169 12.832C178.337 12.832 178.481 12.82 178.601 12.796C178.721 12.748 178.817 12.736 178.889 12.76C178.961 12.76 179.057 12.748 179.177 12.724C179.369 12.772 179.525 12.784 179.645 12.76C179.789 12.712 179.969 12.7 180.185 12.724C180.209 12.844 180.197 13.012 180.149 13.228C180.125 13.444 180.113 13.66 180.113 13.876C180.113 14.332 180.113 14.8 180.113 15.28C180.137 15.736 180.137 16.204 180.113 16.684C180.089 16.948 180.077 17.2 180.077 17.44C180.101 17.68 180.089 17.92 180.041 18.16C180.041 18.208 180.041 18.304 180.041 18.448C180.041 18.568 180.041 18.7 180.041 18.844C180.041 18.988 180.041 19.132 180.041 19.276C180.041 19.396 180.041 19.468 180.041 19.492C180.089 19.756 180.113 20.08 180.113 20.464C180.113 20.848 180.101 21.256 180.077 21.688C180.053 22.096 180.029 22.492 180.005 22.876C180.005 23.26 180.005 23.584 180.005 23.848C180.005 24.208 180.017 24.568 180.041 24.928C180.065 25.264 180.077 25.612 180.077 25.972C179.501 26.092 178.937 26.14 178.385 26.116C177.857 26.116 177.305 26.14 176.729 26.188C176.657 26.092 176.621 25.936 176.621 25.72C176.621 25.6 176.609 25.492 176.585 25.396C176.585 25.3 176.573 25.192 176.549 25.072C176.525 25 176.513 24.88 176.513 24.712C176.513 24.64 176.501 24.58 176.477 24.532C176.429 24.532 176.357 24.592 176.261 24.712C176.165 24.832 176.057 24.916 175.937 24.964C175.697 25.084 175.457 25.192 175.217 25.288C175.001 25.408 174.773 25.492 174.533 25.54C174.053 25.756 173.525 25.876 172.949 25.9C172.373 25.948 171.773 25.972 171.149 25.972C170.789 25.972 170.477 25.912 170.213 25.792C169.973 25.672 169.733 25.552 169.493 25.432Z" fill="#F32659"/>
<path d="M190.255 23.164C190.495 22.948 190.675 22.72 190.795 22.48C190.915 22.216 190.975 21.904 190.975 21.544C190.975 21.328 190.915 21.112 190.795 20.896C190.675 20.68 190.495 20.512 190.255 20.392C189.679 20.176 189.091 19.96 188.491 19.744C187.891 19.528 187.243 19.36 186.547 19.24C186.211 19.12 185.851 19 185.467 18.88C185.107 18.76 184.687 18.64 184.207 18.52C183.247 18.064 182.647 17.296 182.407 16.216C182.407 15.76 182.407 15.316 182.407 14.884C182.407 14.452 182.515 14.008 182.731 13.552C182.875 13.216 182.995 12.976 183.091 12.832C183.211 12.664 183.319 12.544 183.415 12.472C183.535 12.376 183.643 12.304 183.739 12.256C183.859 12.184 183.991 12.088 184.135 11.968C184.687 11.752 185.155 11.596 185.539 11.5C185.947 11.38 186.439 11.26 187.015 11.14C187.255 11.02 187.483 10.948 187.699 10.924C187.939 10.9 188.167 10.888 188.383 10.888H190.327C190.687 10.888 191.023 10.888 191.335 10.888C191.647 10.864 191.971 10.864 192.307 10.888C192.835 10.912 193.327 10.96 193.783 11.032C194.239 11.104 194.767 11.2 195.367 11.32C195.919 11.392 196.315 11.476 196.555 11.572C196.507 11.692 196.459 11.884 196.411 12.148C196.387 12.412 196.363 12.676 196.339 12.94C196.339 12.988 196.327 13.036 196.303 13.084C196.303 13.108 196.303 13.144 196.303 13.192C196.303 13.312 196.267 13.384 196.195 13.408C196.147 13.432 196.087 13.432 196.015 13.408C195.967 13.384 195.907 13.36 195.835 13.336C195.427 13.288 195.007 13.264 194.575 13.264C194.143 13.264 193.711 13.276 193.279 13.3C192.847 13.324 192.415 13.372 191.983 13.444C191.551 13.516 191.131 13.576 190.723 13.624C190.531 13.672 190.351 13.72 190.183 13.768C190.015 13.792 189.847 13.828 189.679 13.876C189.487 13.924 189.307 13.984 189.139 14.056C188.995 14.128 188.827 14.224 188.635 14.344C188.395 14.632 188.227 14.896 188.131 15.136C188.011 15.424 187.951 15.712 187.951 16C187.903 16.12 187.903 16.312 187.951 16.576C187.999 16.816 188.095 17.02 188.239 17.188C188.551 17.524 188.839 17.74 189.103 17.836C189.559 17.956 189.991 18.064 190.399 18.16C190.831 18.256 191.215 18.352 191.551 18.448C191.671 18.448 191.803 18.472 191.947 18.52C192.091 18.568 192.223 18.592 192.343 18.592C192.823 18.64 193.255 18.724 193.639 18.844C194.023 18.94 194.443 19.072 194.899 19.24C195.235 19.36 195.571 19.492 195.907 19.636C196.267 19.756 196.615 19.924 196.951 20.14C197.215 20.5 197.407 20.812 197.527 21.076C197.671 21.34 197.803 21.652 197.923 22.012V22.948C197.923 23.188 197.875 23.416 197.779 23.632C197.683 23.848 197.575 24.016 197.455 24.136C197.215 24.76 196.747 25.3 196.051 25.756C195.595 26.092 195.115 26.368 194.611 26.584C194.131 26.824 193.603 26.992 193.027 27.088C192.211 27.352 191.383 27.496 190.543 27.52C189.727 27.568 188.863 27.532 187.951 27.412L185.971 27.232C185.755 27.208 185.503 27.172 185.215 27.124C184.927 27.076 184.639 27.004 184.351 26.908C183.943 26.788 183.643 26.716 183.451 26.692C183.283 26.692 183.187 26.668 183.163 26.62C183.139 26.572 183.115 26.524 183.091 26.476C183.067 26.452 183.055 26.428 183.055 26.404C182.935 26.14 182.863 25.888 182.839 25.648C182.815 25.432 182.743 25.156 182.623 24.82C182.575 24.7 182.539 24.592 182.515 24.496C182.491 24.4 182.467 24.304 182.443 24.208V24.1C182.443 24.052 182.431 24.016 182.407 23.992C182.407 23.968 182.419 23.932 182.443 23.884C182.563 23.884 182.659 23.896 182.731 23.92C182.827 23.944 182.935 23.956 183.055 23.956C183.343 24.028 183.667 24.1 184.027 24.172C184.411 24.244 184.711 24.28 184.927 24.28C185.143 24.28 185.383 24.292 185.647 24.316C185.911 24.316 186.211 24.316 186.547 24.316C186.835 24.34 187.135 24.352 187.447 24.352C187.759 24.352 188.071 24.292 188.383 24.172C188.455 24.1 188.575 24.028 188.743 23.956C188.911 23.884 189.091 23.812 189.283 23.74C189.475 23.644 189.655 23.56 189.823 23.488C190.015 23.392 190.159 23.284 190.255 23.164Z" fill="#F32659"/>
<path d="M225.533 20.212C225.533 20.692 225.461 21.172 225.317 21.652C225.197 22.132 225.041 22.576 224.849 22.984C224.777 23.248 224.633 23.512 224.417 23.776C224.201 24.016 224.069 24.304 224.021 24.64C223.685 25.168 223.313 25.552 222.905 25.792C222.521 26.056 222.197 26.32 221.933 26.584C221.861 26.584 221.789 26.596 221.717 26.62C221.645 26.668 221.585 26.692 221.537 26.692C221.393 26.836 221.213 26.968 220.997 27.088C220.805 27.208 220.613 27.268 220.421 27.268H220.277C219.941 27.436 219.569 27.52 219.161 27.52H217.505C217.145 27.496 216.809 27.448 216.497 27.376C216.209 27.304 215.897 27.268 215.561 27.268C215.297 27.196 215.021 27.088 214.733 26.944C214.445 26.824 214.121 26.704 213.761 26.584C213.425 26.368 213.113 26.128 212.825 25.864C212.561 25.6 212.321 25.324 212.105 25.036C212.057 24.988 211.997 24.904 211.925 24.784C211.853 24.664 211.781 24.568 211.709 24.496C211.565 24.352 211.445 24.22 211.349 24.1C211.253 23.956 211.145 23.812 211.025 23.668C210.881 23.404 210.737 23.128 210.593 22.84C210.473 22.528 210.377 22.204 210.305 21.868C210.185 21.604 210.101 21.328 210.053 21.04C210.029 20.728 209.981 20.404 209.909 20.068V19.924C209.909 19.804 209.885 19.696 209.837 19.6C209.789 19.504 209.765 19.384 209.765 19.24C209.765 18.904 209.741 18.568 209.693 18.232C209.645 17.872 209.621 17.512 209.621 17.152C209.621 16.96 209.645 16.744 209.693 16.504C209.741 16.24 209.765 16 209.765 15.784C209.765 15.304 209.789 14.956 209.837 14.74C209.885 14.524 209.957 14.32 210.053 14.128C210.125 13.912 210.173 13.708 210.197 13.516C210.221 13.3 210.257 13.084 210.305 12.868C210.449 12.484 210.605 12.04 210.773 11.536C210.941 11.032 211.157 10.648 211.421 10.384C211.469 10.192 211.577 10 211.745 9.80801C211.937 9.61601 212.105 9.40001 212.249 9.16001C212.321 9.01601 212.417 8.84801 212.537 8.65601C212.681 8.46401 212.813 8.26001 212.933 8.04401C213.053 7.92401 213.149 7.80401 213.221 7.68401C213.317 7.56401 213.413 7.45601 213.509 7.36001C213.701 7.16801 213.893 6.91601 214.085 6.60401C214.301 6.26801 214.517 6.04001 214.733 5.92001C214.925 5.75201 215.081 5.59601 215.201 5.45201C215.345 5.28401 215.513 5.14001 215.705 5.02001L216.281 4.51601C216.329 4.46801 216.353 4.42001 216.353 4.37201C216.353 4.30001 216.413 4.24001 216.533 4.19201H218.081C218.201 4.19201 218.309 4.20401 218.405 4.22801C218.501 4.25201 218.621 4.26401 218.765 4.26401C218.885 4.26401 218.993 4.26401 219.089 4.26401C219.185 4.26401 219.305 4.24001 219.449 4.19201C219.593 4.31201 219.593 4.44401 219.449 4.58801C219.377 4.61201 219.305 4.67201 219.233 4.76801C219.185 4.84001 219.113 4.92401 219.017 5.02001C218.681 5.35601 218.357 5.70401 218.045 6.06401C217.757 6.42401 217.445 6.80801 217.109 7.21601C217.109 7.31201 217.013 7.45601 216.821 7.64801C216.605 7.91201 216.389 8.21201 216.173 8.54801C215.981 8.86001 215.777 9.14801 215.561 9.41201C215.513 9.62801 215.429 9.86801 215.309 10.132C215.189 10.372 215.093 10.6 215.021 10.816C214.949 10.984 214.865 11.188 214.769 11.428C214.673 11.668 214.589 11.908 214.517 12.148C214.445 12.388 214.385 12.604 214.337 12.796C214.289 12.964 214.265 13.084 214.265 13.156C214.313 13.108 214.409 13.036 214.553 12.94C214.697 12.82 214.817 12.748 214.913 12.724C215.153 12.58 215.357 12.484 215.525 12.436C215.693 12.388 215.897 12.304 216.137 12.184C216.713 11.92 217.313 11.788 217.937 11.788H219.449C219.641 11.788 219.821 11.824 219.989 11.896C220.157 11.944 220.349 11.992 220.565 12.04C220.685 12.112 220.817 12.184 220.961 12.256C221.105 12.304 221.249 12.328 221.393 12.328C221.585 12.4 221.753 12.508 221.897 12.652C222.065 12.772 222.221 12.892 222.365 13.012C222.485 13.084 222.605 13.156 222.725 13.228C222.869 13.3 222.977 13.372 223.049 13.444C223.601 13.996 223.973 14.392 224.165 14.632C224.381 14.848 224.513 15.052 224.561 15.244C224.633 15.364 224.705 15.472 224.777 15.568C224.849 15.664 224.921 15.784 224.993 15.928C225.041 16.072 225.077 16.192 225.101 16.288C225.125 16.36 225.173 16.468 225.245 16.612C225.413 16.948 225.521 17.296 225.569 17.656C225.617 17.992 225.641 18.316 225.641 18.628C225.641 18.94 225.617 19.228 225.569 19.492C225.545 19.756 225.533 19.996 225.533 20.212ZM215.705 23.236C216.233 23.428 216.737 23.524 217.217 23.524C217.289 23.524 217.385 23.5 217.505 23.452C217.649 23.404 217.793 23.38 217.937 23.38C218.009 23.38 218.093 23.356 218.189 23.308C218.309 23.26 218.405 23.188 218.477 23.092C218.837 22.972 219.077 22.804 219.197 22.588C219.317 22.372 219.449 22.132 219.593 21.868C219.713 21.532 219.833 21.208 219.953 20.896C220.097 20.584 220.205 20.26 220.277 19.924V19.78C220.397 19.372 220.421 19.024 220.349 18.736C220.301 18.424 220.277 18.088 220.277 17.728C220.181 17.2 220.013 16.72 219.773 16.288C219.701 16.168 219.617 16.06 219.521 15.964C219.449 15.844 219.377 15.688 219.305 15.496C219.137 15.424 218.957 15.328 218.765 15.208C218.573 15.064 218.357 14.956 218.117 14.884C217.997 14.836 217.805 14.788 217.541 14.74C217.301 14.668 217.109 14.692 216.965 14.812C216.701 14.86 216.473 14.944 216.281 15.064C216.089 15.184 215.897 15.328 215.705 15.496C215.585 15.568 215.429 15.676 215.237 15.82C215.069 15.94 214.949 16.072 214.877 16.216C214.565 16.552 214.361 16.816 214.265 17.008C214.193 17.2 214.121 17.392 214.049 17.584C214.049 17.656 214.025 17.74 213.977 17.836C213.929 17.908 213.905 18.004 213.905 18.124C213.905 18.268 213.881 18.412 213.833 18.556C213.785 18.7 213.761 18.832 213.761 18.952C213.761 19.504 213.821 20.032 213.941 20.536C214.061 21.04 214.193 21.532 214.337 22.012C214.481 22.42 214.709 22.696 215.021 22.84C215.165 22.912 215.285 22.984 215.381 23.056C215.477 23.128 215.585 23.188 215.705 23.236Z" fill="#F32659"/>
<path d="M243.917 4.48001C243.989 4.52801 244.025 4.60001 244.025 4.69601C244.049 4.76801 244.061 4.82801 244.061 4.87601C243.989 5.09201 243.941 5.30801 243.917 5.52401C243.917 5.74001 243.917 5.94401 243.917 6.13601C243.845 6.20801 243.737 6.28001 243.593 6.35201C243.473 6.40001 243.341 6.42401 243.197 6.42401H241.685C241.325 6.47201 241.061 6.49601 240.893 6.49601C240.749 6.49601 240.617 6.49601 240.497 6.49601C240.377 6.49601 240.233 6.49601 240.065 6.49601C239.921 6.47201 239.681 6.44801 239.345 6.42401H237.977C237.689 6.42401 237.377 6.44801 237.041 6.49601C236.705 6.54401 236.369 6.56801 236.033 6.56801C235.961 6.56801 235.853 6.58001 235.709 6.60401C235.589 6.60401 235.469 6.62801 235.349 6.67601V11.932C235.349 12.004 235.349 12.1 235.349 12.22C235.373 12.34 235.409 12.436 235.457 12.508C235.601 12.508 235.721 12.496 235.817 12.472C235.913 12.448 236.033 12.436 236.177 12.436H236.861C237.197 12.364 237.617 12.364 238.121 12.436C238.625 12.508 239.117 12.616 239.597 12.76C240.077 12.904 240.497 13.06 240.857 13.228C241.241 13.396 241.469 13.528 241.541 13.624C241.901 13.84 242.213 14.056 242.477 14.272C242.765 14.464 243.005 14.704 243.197 14.992C243.485 15.328 243.737 15.676 243.953 16.036C244.169 16.372 244.385 16.708 244.601 17.044C244.673 17.188 244.721 17.308 244.745 17.404C244.769 17.5 244.817 17.62 244.889 17.764C245.033 17.98 245.105 18.22 245.105 18.484C245.129 18.748 245.189 19.012 245.285 19.276C245.285 19.612 245.249 19.96 245.177 20.32C245.129 20.656 245.069 20.992 244.997 21.328C244.997 21.4 244.961 21.496 244.889 21.616C244.841 21.736 244.817 21.832 244.817 21.904C244.697 22.312 244.541 22.732 244.349 23.164C244.157 23.596 243.917 23.956 243.629 24.244C243.485 24.46 243.341 24.652 243.197 24.82C243.077 24.964 242.945 25.144 242.801 25.36C242.657 25.48 242.549 25.564 242.477 25.612C242.405 25.684 242.297 25.756 242.153 25.828C242.009 25.9 241.853 25.972 241.685 26.044C241.517 26.116 241.313 26.26 241.073 26.476C240.929 26.596 240.713 26.704 240.425 26.8C240.137 26.92 239.825 26.992 239.489 27.016C239.393 27.04 239.321 27.052 239.273 27.052C239.225 27.076 239.165 27.088 239.093 27.088C239.021 27.088 238.925 27.076 238.805 27.052C238.685 27.052 238.517 27.052 238.301 27.052C237.965 27.124 237.629 27.16 237.293 27.16C236.981 27.16 236.645 27.16 236.285 27.16C236.165 27.16 236.045 27.148 235.925 27.124C235.805 27.124 235.685 27.112 235.565 27.088C235.445 27.064 235.325 27.04 235.205 27.016C234.869 27.016 234.605 26.98 234.413 26.908C234.221 26.836 234.029 26.8 233.837 26.8C233.621 26.848 233.405 26.812 233.189 26.692C232.973 26.596 232.769 26.524 232.577 26.476C232.361 26.404 232.145 26.32 231.929 26.224C231.737 26.152 231.533 26.044 231.317 25.9C231.125 25.756 230.897 25.612 230.633 25.468C230.369 25.324 230.141 25.144 229.949 24.928L229.517 24.532C229.325 24.316 229.121 24.112 228.905 23.92C228.713 23.728 228.557 23.56 228.437 23.416C228.365 23.344 228.317 23.272 228.293 23.2C228.269 23.128 228.221 23.068 228.149 23.02C228.149 22.9 228.197 22.804 228.293 22.732C228.413 22.684 228.545 22.588 228.689 22.444C228.833 22.276 228.941 22.156 229.013 22.084C229.157 21.964 229.289 21.892 229.409 21.868C229.529 21.844 229.661 21.76 229.805 21.616C229.949 21.688 230.081 21.784 230.201 21.904C230.345 22.024 230.453 22.096 230.525 22.12C230.645 22.24 230.753 22.36 230.849 22.48C230.945 22.6 231.041 22.708 231.137 22.804C231.353 23.02 231.641 23.224 232.001 23.416C232.145 23.488 232.289 23.584 232.433 23.704C232.577 23.824 232.709 23.908 232.829 23.956C232.901 24.028 232.973 24.076 233.045 24.1C233.117 24.124 233.189 24.172 233.261 24.244C233.525 24.388 233.801 24.508 234.089 24.604C234.401 24.676 234.725 24.736 235.061 24.784C235.229 24.808 235.349 24.82 235.421 24.82C235.493 24.796 235.601 24.784 235.745 24.784C236.081 24.784 236.429 24.784 236.789 24.784C237.173 24.784 237.521 24.7 237.833 24.532C237.977 24.46 238.193 24.316 238.481 24.1C238.769 23.884 238.961 23.704 239.057 23.56C239.321 23.176 239.585 22.828 239.849 22.516C240.113 22.18 240.305 21.844 240.425 21.508C240.425 21.436 240.437 21.316 240.461 21.148C240.485 20.98 240.533 20.86 240.605 20.788C240.725 20.212 240.725 19.612 240.605 18.988C240.605 18.916 240.581 18.832 240.533 18.736C240.485 18.616 240.461 18.52 240.461 18.448C240.389 18.112 240.257 17.8 240.065 17.512C239.873 17.224 239.681 16.984 239.489 16.792C239.273 16.456 238.997 16.18 238.661 15.964C238.349 15.724 238.025 15.532 237.689 15.388C237.425 15.268 237.173 15.172 236.933 15.1C236.693 15.028 236.441 14.992 236.177 14.992C235.961 14.92 235.745 14.884 235.529 14.884C235.337 14.86 235.133 14.848 234.917 14.848C234.437 14.848 234.005 14.86 233.621 14.884C233.261 14.884 232.865 14.824 232.433 14.704H231.857C231.713 14.704 231.569 14.716 231.425 14.74C231.305 14.74 231.185 14.68 231.065 14.56C231.017 14.536 230.993 14.452 230.993 14.308C230.993 14.14 230.993 13.96 230.993 13.768C231.017 13.552 231.029 13.336 231.029 13.12C231.053 12.88 231.065 12.676 231.065 12.508C231.113 12.22 231.125 11.944 231.101 11.68C231.077 11.392 231.065 11.116 231.065 10.852C231.065 10.708 231.041 10.564 230.993 10.42C230.945 10.276 230.921 10.144 230.921 10.024C230.849 9.54401 230.825 9.17201 230.849 8.90801C230.897 8.62001 230.921 8.34401 230.921 8.08001C230.921 7.79201 230.897 7.48001 230.849 7.14401C230.825 6.80801 230.849 6.47201 230.921 6.13601C230.969 5.87201 231.005 5.68001 231.029 5.56001C231.053 5.41601 231.089 5.23601 231.137 5.02001C231.209 4.90001 231.221 4.76801 231.173 4.62401C231.125 4.48001 231.149 4.37201 231.245 4.30001C231.293 4.25201 231.377 4.24001 231.497 4.26401C231.617 4.26401 231.701 4.26401 231.749 4.26401C232.013 4.26401 232.301 4.27601 232.613 4.30001C232.949 4.32401 233.261 4.33601 233.549 4.33601C233.813 4.31201 234.077 4.33601 234.341 4.40801C234.629 4.45601 234.917 4.48001 235.205 4.48001C235.469 4.48001 235.733 4.49201 235.997 4.51601C236.285 4.54001 236.573 4.55201 236.861 4.55201C237.053 4.60001 237.257 4.61201 237.473 4.58801C237.689 4.54001 237.893 4.49201 238.085 4.44401C238.349 4.39601 238.673 4.38401 239.057 4.40801C239.465 4.43201 239.837 4.40801 240.173 4.33601H242.657C242.873 4.33601 243.077 4.36001 243.269 4.40801C243.485 4.45601 243.701 4.48001 243.917 4.48001Z" fill="#F32659"/>
<path d="M276.629 24.568C276.677 24.016 276.689 23.524 276.665 23.092C276.641 22.636 276.629 22.24 276.629 21.904C276.557 21.616 276.509 21.328 276.485 21.04C276.461 20.728 276.425 20.44 276.377 20.176C276.257 19.84 276.173 19.504 276.125 19.168C276.101 18.808 276.029 18.46 275.909 18.124C275.909 17.764 275.837 17.428 275.693 17.116C275.573 16.78 275.345 16.492 275.009 16.252C274.745 16.132 274.505 16.024 274.289 15.928C274.073 15.832 273.845 15.784 273.605 15.784C273.485 15.856 273.281 15.976 272.993 16.144C272.729 16.312 272.537 16.528 272.417 16.792C272.297 17.08 272.189 17.344 272.093 17.584C272.021 17.8 271.937 17.98 271.841 18.124C271.697 18.364 271.625 18.652 271.625 18.988C271.625 19.324 271.613 19.624 271.589 19.888C271.589 19.936 271.577 20.056 271.553 20.248C271.529 20.416 271.505 20.608 271.481 20.824C271.457 21.04 271.433 21.244 271.409 21.436C271.385 21.604 271.373 21.712 271.373 21.76L271.085 23.848C271.085 24.016 271.073 24.184 271.049 24.352C271.049 24.496 271.049 24.652 271.049 24.82C271.049 24.94 271.037 25.06 271.013 25.18C270.989 25.3 270.977 25.42 270.977 25.54H270.761C270.473 25.588 270.161 25.612 269.825 25.612C269.513 25.612 269.141 25.588 268.709 25.54C268.589 25.516 268.481 25.492 268.385 25.468C268.313 25.444 268.277 25.312 268.277 25.072C268.277 24.784 268.265 24.52 268.241 24.28C268.241 24.04 268.241 23.788 268.241 23.524C268.265 23.164 268.277 22.804 268.277 22.444C268.277 22.06 268.241 21.652 268.169 21.22C268.169 20.908 268.133 20.572 268.061 20.212C267.989 19.852 267.929 19.504 267.881 19.168C267.833 18.856 267.809 18.544 267.809 18.232C267.809 17.896 267.749 17.596 267.629 17.332C267.557 17.092 267.473 16.876 267.377 16.684C267.305 16.468 267.209 16.24 267.089 16C267.065 15.952 267.041 15.928 267.017 15.928C266.993 15.904 266.969 15.88 266.945 15.856L266.693 15.748C266.429 15.58 266.105 15.46 265.721 15.388H265.577L264.785 15.496C264.305 15.568 263.921 15.736 263.633 16C262.937 16.696 262.481 17.62 262.265 18.772C262.121 18.988 262.037 19.216 262.013 19.456C261.989 19.672 261.953 19.888 261.905 20.104C261.857 20.368 261.821 20.644 261.797 20.932C261.797 21.196 261.785 21.46 261.761 21.724C261.761 21.916 261.725 22.108 261.653 22.3C261.605 22.492 261.605 22.672 261.653 22.84C261.653 22.888 261.641 22.996 261.617 23.164C261.617 23.332 261.605 23.512 261.581 23.704C261.581 23.896 261.569 24.076 261.545 24.244C261.545 24.412 261.545 24.52 261.545 24.568C261.497 24.664 261.473 24.856 261.473 25.144C261.473 25.432 261.461 25.6 261.437 25.648C261.317 25.648 261.173 25.66 261.005 25.684C260.861 25.732 260.705 25.78 260.537 25.828C260.393 25.876 260.225 25.888 260.033 25.864C259.841 25.84 259.661 25.804 259.493 25.756C259.133 25.684 258.869 25.648 258.701 25.648C258.533 25.648 258.317 25.612 258.053 25.54C258.053 25.396 258.041 25.216 258.017 25C258.017 24.76 257.993 24.52 257.945 24.28C257.921 24.016 257.897 23.764 257.873 23.524C257.873 23.284 257.873 23.104 257.873 22.984C257.873 22.912 257.861 22.792 257.837 22.624C257.837 22.432 257.825 22.24 257.801 22.048C257.801 21.832 257.789 21.64 257.765 21.472C257.741 21.28 257.729 21.148 257.729 21.076C257.705 20.836 257.693 20.62 257.693 20.428C257.693 20.236 257.693 20.02 257.693 19.78C257.717 19.54 257.729 19.312 257.729 19.096C257.729 18.88 257.729 18.664 257.729 18.448V15.46C257.729 15.388 257.729 15.208 257.729 14.92C257.753 14.608 257.765 14.284 257.765 13.948C257.789 13.612 257.801 13.3 257.801 13.012C257.825 12.7 257.837 12.508 257.837 12.436C257.957 12.436 258.113 12.424 258.305 12.4C258.497 12.376 258.653 12.364 258.773 12.364C259.013 12.364 259.229 12.364 259.421 12.364C259.637 12.34 259.853 12.328 260.069 12.328C260.309 12.328 260.429 12.328 260.429 12.328C260.429 12.304 260.477 12.304 260.573 12.328C260.645 12.544 260.669 12.688 260.645 12.76C260.645 12.808 260.669 12.916 260.717 13.084C260.741 13.204 260.765 13.348 260.789 13.516C260.837 13.684 260.861 13.828 260.861 13.948V14.128C261.077 13.912 261.293 13.744 261.509 13.624C261.725 13.48 261.893 13.348 262.013 13.228C262.349 12.964 262.697 12.784 263.057 12.688C263.417 12.592 263.825 12.508 264.281 12.436L265.901 12.256H266.153C266.513 12.328 266.837 12.412 267.125 12.508C267.413 12.58 267.713 12.712 268.025 12.904L268.925 13.696C269.069 13.792 269.165 13.876 269.213 13.948C269.333 14.044 269.441 14.164 269.537 14.308C269.657 14.428 269.765 14.608 269.861 14.848C269.981 14.728 270.089 14.62 270.185 14.524C270.281 14.404 270.389 14.284 270.509 14.164C270.557 14.116 270.617 14.068 270.689 14.02C270.785 13.972 270.893 13.924 271.013 13.876C271.205 13.756 271.349 13.66 271.445 13.588C271.541 13.492 271.685 13.396 271.877 13.3C271.997 13.252 272.129 13.204 272.273 13.156C272.441 13.108 272.585 13.048 272.705 12.976C273.281 12.736 273.797 12.688 274.253 12.832C274.733 12.976 275.201 13.108 275.657 13.228C276.017 13.348 276.317 13.528 276.557 13.768C276.821 14.008 277.073 14.296 277.313 14.632L277.997 16C278.117 16.36 278.225 16.72 278.321 17.08C278.441 17.416 278.501 17.764 278.501 18.124C278.597 18.58 278.693 19.048 278.789 19.528C278.885 19.984 278.933 20.5 278.933 21.076C279.053 21.436 279.089 21.832 279.041 22.264C278.993 22.696 279.029 23.08 279.149 23.416V25.288C278.909 25.288 278.717 25.324 278.573 25.396C278.453 25.492 278.261 25.54 277.997 25.54C277.877 25.54 277.721 25.552 277.529 25.576C277.337 25.624 277.181 25.672 277.061 25.72C276.941 25.72 276.833 25.708 276.737 25.684C276.665 25.684 276.629 25.636 276.629 25.54V24.568Z" fill="#F32659"/>
<path d="M289.923 23.164C290.163 22.948 290.343 22.72 290.463 22.48C290.583 22.216 290.643 21.904 290.643 21.544C290.643 21.328 290.583 21.112 290.463 20.896C290.343 20.68 290.163 20.512 289.923 20.392C289.347 20.176 288.759 19.96 288.159 19.744C287.559 19.528 286.911 19.36 286.215 19.24C285.879 19.12 285.519 19 285.135 18.88C284.775 18.76 284.355 18.64 283.875 18.52C282.915 18.064 282.315 17.296 282.075 16.216C282.075 15.76 282.075 15.316 282.075 14.884C282.075 14.452 282.183 14.008 282.399 13.552C282.543 13.216 282.663 12.976 282.759 12.832C282.879 12.664 282.987 12.544 283.083 12.472C283.203 12.376 283.311 12.304 283.407 12.256C283.527 12.184 283.659 12.088 283.803 11.968C284.355 11.752 284.823 11.596 285.207 11.5C285.615 11.38 286.107 11.26 286.683 11.14C286.923 11.02 287.151 10.948 287.367 10.924C287.607 10.9 287.835 10.888 288.051 10.888H289.995C290.355 10.888 290.691 10.888 291.003 10.888C291.315 10.864 291.639 10.864 291.975 10.888C292.503 10.912 292.995 10.96 293.451 11.032C293.907 11.104 294.435 11.2 295.035 11.32C295.587 11.392 295.983 11.476 296.223 11.572C296.175 11.692 296.127 11.884 296.079 12.148C296.055 12.412 296.031 12.676 296.007 12.94C296.007 12.988 295.995 13.036 295.971 13.084C295.971 13.108 295.971 13.144 295.971 13.192C295.971 13.312 295.935 13.384 295.863 13.408C295.815 13.432 295.755 13.432 295.683 13.408C295.635 13.384 295.575 13.36 295.503 13.336C295.095 13.288 294.675 13.264 294.243 13.264C293.811 13.264 293.379 13.276 292.947 13.3C292.515 13.324 292.083 13.372 291.651 13.444C291.219 13.516 290.799 13.576 290.391 13.624C290.199 13.672 290.019 13.72 289.851 13.768C289.683 13.792 289.515 13.828 289.347 13.876C289.155 13.924 288.975 13.984 288.807 14.056C288.663 14.128 288.495 14.224 288.303 14.344C288.063 14.632 287.895 14.896 287.799 15.136C287.679 15.424 287.619 15.712 287.619 16C287.571 16.12 287.571 16.312 287.619 16.576C287.667 16.816 287.763 17.02 287.907 17.188C288.219 17.524 288.507 17.74 288.771 17.836C289.227 17.956 289.659 18.064 290.067 18.16C290.499 18.256 290.883 18.352 291.219 18.448C291.339 18.448 291.471 18.472 291.615 18.52C291.759 18.568 291.891 18.592 292.011 18.592C292.491 18.64 292.923 18.724 293.307 18.844C293.691 18.94 294.111 19.072 294.567 19.24C294.903 19.36 295.239 19.492 295.575 19.636C295.935 19.756 296.283 19.924 296.619 20.14C296.883 20.5 297.075 20.812 297.195 21.076C297.339 21.34 297.471 21.652 297.591 22.012V22.948C297.591 23.188 297.543 23.416 297.447 23.632C297.351 23.848 297.243 24.016 297.123 24.136C296.883 24.76 296.415 25.3 295.719 25.756C295.263 26.092 294.783 26.368 294.279 26.584C293.799 26.824 293.271 26.992 292.695 27.088C291.879 27.352 291.051 27.496 290.211 27.52C289.395 27.568 288.531 27.532 287.619 27.412L285.639 27.232C285.423 27.208 285.171 27.172 284.883 27.124C284.595 27.076 284.307 27.004 284.019 26.908C283.611 26.788 283.311 26.716 283.119 26.692C282.951 26.692 282.855 26.668 282.831 26.62C282.807 26.572 282.783 26.524 282.759 26.476C282.735 26.452 282.723 26.428 282.723 26.404C282.603 26.14 282.531 25.888 282.507 25.648C282.483 25.432 282.411 25.156 282.291 24.82C282.243 24.7 282.207 24.592 282.183 24.496C282.159 24.4 282.135 24.304 282.111 24.208V24.1C282.111 24.052 282.099 24.016 282.075 23.992C282.075 23.968 282.087 23.932 282.111 23.884C282.231 23.884 282.327 23.896 282.399 23.92C282.495 23.944 282.603 23.956 282.723 23.956C283.011 24.028 283.335 24.1 283.695 24.172C284.079 24.244 284.379 24.28 284.595 24.28C284.811 24.28 285.051 24.292 285.315 24.316C285.579 24.316 285.879 24.316 286.215 24.316C286.503 24.34 286.803 24.352 287.115 24.352C287.427 24.352 287.739 24.292 288.051 24.172C288.123 24.1 288.243 24.028 288.411 23.956C288.579 23.884 288.759 23.812 288.951 23.74C289.143 23.644 289.323 23.56 289.491 23.488C289.683 23.392 289.827 23.284 289.923 23.164Z" fill="#F32659"/>
</svg>
